<svg xmlns="http://www.w3.org/2000/svg" xmlns:xlink="http://www.w3.org/1999/xlink" width="720" height="60" viewBox="0 0 720 60">
  <defs>
    <pattern id="dotGrid2" x="0" y="0" width="24" height="24" patternUnits="userSpaceOnUse">
      <circle cx="12" cy="12" r="0.5" fill="#F0F4FA" opacity="0.05"/>
    </pattern>
  </defs>

  <!-- Background -->
  <rect width="720" height="60" fill="#0F1419" rx="0"/>
  <rect width="720" height="60" fill="url(#dotGrid2)"/>
  <rect x="0.5" y="0.5" width="719" height="59" fill="none" stroke="#F0F4FA" stroke-opacity="0.1" stroke-width="1"/>

  <!-- Constant Labs Button -->
  <a xlink:href="https://constantlabs.ai">
    <rect x="40" y="10" width="200" height="40" fill="none" stroke="#50A891" stroke-opacity="0.5" stroke-width="2" rx="0"/>
    <rect x="40" y="10" width="200" height="40" fill="#50A891" opacity="0.08" rx="0"/>
    <text x="140" y="36" text-anchor="middle" fill="#50A891" font-family="monospace" font-size="13" font-weight="bold" letter-spacing="2">CONSTANTLABS.AI</text>
  </a>

  <!-- Google Play Button -->
  <a xlink:href="https://play.google.com/store/apps/developer?id=Mohammed+Altigani">
    <rect x="260" y="10" width="200" height="40" fill="none" stroke="#4BA370" stroke-opacity="0.5" stroke-width="2" rx="0"/>
    <rect x="260" y="10" width="200" height="40" fill="#4BA370" opacity="0.08" rx="0"/>
    <text x="360" y="36" text-anchor="middle" fill="#4BA370" font-family="monospace" font-size="13" font-weight="bold" letter-spacing="2">GOOGLE PLAY</text>
  </a>

  <!-- Email Button -->
  <a xlink:href="mailto:workmail6093@gmail.com">
    <rect x="480" y="10" width="200" height="40" fill="none" stroke="#8B62CC" stroke-opacity="0.5" stroke-width="2" rx="0"/>
    <rect x="480" y="10" width="200" height="40" fill="#8B62CC" opacity="0.08" rx="0"/>
    <text x="580" y="36" text-anchor="middle" fill="#8B62CC" font-family="monospace" font-size="13" font-weight="bold" letter-spacing="2">EMAIL</text>
  </a>

  <!-- Corner brackets -->
  <path d="M 0,12 L 0,0 L 12,0" fill="none" stroke="#50A891" stroke-opacity="0.3" stroke-width="1.5"/>
  <path d="M 708,0 L 720,0 L 720,12" fill="none" stroke="#8B62CC" stroke-opacity="0.3" stroke-width="1.5"/>
  <path d="M 0,48 L 0,60 L 12,60" fill="none" stroke="#8B62CC" stroke-opacity="0.3" stroke-width="1.5"/>
  <path d="M 708,60 L 720,60 L 720,48" fill="none" stroke="#50A891" stroke-opacity="0.3" stroke-width="1.5"/>
</svg>
