<svg xmlns="http://www.w3.org/2000/svg" width="900" height="180" viewBox="0 0 900 180">
  <defs>
    <pattern id="dg4" x="0" y="0" width="24" height="24" patternUnits="userSpaceOnUse">
      <circle cx="12" cy="12" r="0.6" fill="#F0F4FA" opacity="0.05"/>
    </pattern>
    <radialGradient id="o4a" cx="25%" cy="50%" r="35%">
      <stop offset="0%" stop-color="#4BA370" stop-opacity="0.06"/>
      <stop offset="100%" stop-color="#4BA370" stop-opacity="0"/>
    </radialGradient>
  </defs>
  <rect width="900" height="180" fill="#0F1419"/>
  <rect width="900" height="180" fill="url(#dg4)"/>
  <rect width="900" height="180" fill="url(#o4a)"/>
  <rect x="1" y="1" width="898" height="178" fill="none" stroke="#F0F4FA" stroke-opacity="0.1" stroke-width="2"/>
  <path d="M 0,20 L 0,0 L 20,0" fill="none" stroke="#4BA370" stroke-opacity="0.4" stroke-width="2"/>
  <path d="M 880,0 L 900,0 L 900,20" fill="none" stroke="#4BA370" stroke-opacity="0.4" stroke-width="2"/>
  <path d="M 0,160 L 0,180 L 20,180" fill="none" stroke="#4BA370" stroke-opacity="0.4" stroke-width="2"/>
  <path d="M 880,180 L 900,180 L 900,160" fill="none" stroke="#4BA370" stroke-opacity="0.4" stroke-width="2"/>
  <rect x="820" y="20" width="55" height="22" fill="#555555" fill-opacity="0.4" rx="2"/>
  <text x="848" y="35" text-anchor="middle" fill="#888888" font-family="monospace" font-size="9" letter-spacing="1">REPO</text>
  <text x="40" y="48" fill="#F0F4FA" font-family="monospace" font-size="22" font-weight="bold" letter-spacing="3">MOSQUE SILENCE</text>
  <line x1="40" y1="60" x2="338" y2="60" stroke="#4BA370" stroke-opacity="0.3" stroke-width="1"/>
  <text x="40" y="85" fill="#F0F4FA" font-family="monospace" font-size="13" opacity="0.65">Auto-silences your phone when you enter a mosque.</text>
  <text x="40" y="107" fill="#F0F4FA" font-family="monospace" font-size="12" opacity="0.45">GPS-based proximity detection with a curated UAE mosque database.</text>
  <text x="40" y="125" fill="#F0F4FA" font-family="monospace" font-size="12" opacity="0.45">Battery-efficient background service with customizable radius.</text>
  <text x="40" y="158" fill="#4BA370" font-family="monospace" font-size="11" opacity="0.6" letter-spacing="1">Flutter · Dart · Geolocation · Android</text>
  <text x="500" y="158" fill="#F0F4FA" font-family="monospace" font-size="10" opacity="0.3">github.com/Astrobubu/MosqueSilence</text>
  <circle cx="820" cy="50" r="1" fill="#4BA370" opacity="0.3"/>
  <circle cx="855" cy="115" r="0.7" fill="#50A891" opacity="0.25"/>
  <circle cx="800" cy="145" r="1.2" fill="#D4A13D" opacity="0.2"/>
</svg>
