<svg xmlns="http://www.w3.org/2000/svg" width="900" height="180" viewBox="0 0 900 180">
  <defs>
    <pattern id="dg2" x="0" y="0" width="24" height="24" patternUnits="userSpaceOnUse">
      <circle cx="12" cy="12" r="0.6" fill="#F0F4FA" opacity="0.05"/>
    </pattern>
    <radialGradient id="o2a" cx="15%" cy="40%" r="35%">
      <stop offset="0%" stop-color="#50A891" stop-opacity="0.06"/>
      <stop offset="100%" stop-color="#50A891" stop-opacity="0"/>
    </radialGradient>
  </defs>
  <rect width="900" height="180" fill="#0F1419"/>
  <rect width="900" height="180" fill="url(#dg2)"/>
  <rect width="900" height="180" fill="url(#o2a)"/>
  <rect x="1" y="1" width="898" height="178" fill="none" stroke="#F0F4FA" stroke-opacity="0.1" stroke-width="2"/>
  <path d="M 0,20 L 0,0 L 20,0" fill="none" stroke="#50A891" stroke-opacity="0.4" stroke-width="2"/>
  <path d="M 880,0 L 900,0 L 900,20" fill="none" stroke="#50A891" stroke-opacity="0.4" stroke-width="2"/>
  <path d="M 0,160 L 0,180 L 20,180" fill="none" stroke="#50A891" stroke-opacity="0.4" stroke-width="2"/>
  <path d="M 880,180 L 900,180 L 900,160" fill="none" stroke="#50A891" stroke-opacity="0.4" stroke-width="2"/>
  <rect x="820" y="20" width="55" height="22" fill="#22c55e" fill-opacity="0.15" rx="2"/>
  <text x="848" y="35" text-anchor="middle" fill="#22c55e" font-family="monospace" font-size="9" letter-spacing="1">LIVE</text>
  <text x="40" y="48" fill="#F0F4FA" font-family="monospace" font-size="22" font-weight="bold" letter-spacing="3">MUFAKKIR</text>
  <line x1="40" y1="60" x2="198" y2="60" stroke="#50A891" stroke-opacity="0.3" stroke-width="1"/>
  <text x="40" y="85" fill="#F0F4FA" font-family="monospace" font-size="13" opacity="0.65">Voice-to-text Arabic transcription with AI.</text>
  <text x="40" y="107" fill="#F0F4FA" font-family="monospace" font-size="12" opacity="0.45">Real-time speech recognition across 50+ languages and 10+ Arabic</text>
  <text x="40" y="125" fill="#F0F4FA" font-family="monospace" font-size="12" opacity="0.45">dialects — Gulf, Levantine, Egyptian, Maghrebi.</text>
  <text x="40" y="158" fill="#50A891" font-family="monospace" font-size="11" opacity="0.6" letter-spacing="1">AI · Speech-to-Text · Arabic · Multi-dialect</text>
  <text x="500" y="158" fill="#F0F4FA" font-family="monospace" font-size="10" opacity="0.3">mufakkir.app</text>
  <circle cx="830" cy="55" r="0.9" fill="#50A891" opacity="0.3"/>
  <circle cx="860" cy="110" r="0.7" fill="#D4A13D" opacity="0.2"/>
  <circle cx="810" cy="140" r="1.1" fill="#8B62CC" opacity="0.25"/>
</svg>
