<svg xmlns="http://www.w3.org/2000/svg" width="900" height="180" viewBox="0 0 900 180">
  <defs>
    <pattern id="dg8" x="0" y="0" width="24" height="24" patternUnits="userSpaceOnUse">
      <circle cx="12" cy="12" r="0.6" fill="#F0F4FA" opacity="0.05"/>
    </pattern>
    <radialGradient id="o8a" cx="25%" cy="40%" r="35%">
      <stop offset="0%" stop-color="#D4A13D" stop-opacity="0.06"/>
      <stop offset="100%" stop-color="#D4A13D" stop-opacity="0"/>
    </radialGradient>
    <radialGradient id="o8b" cx="80%" cy="70%" r="30%">
      <stop offset="0%" stop-color="#50A891" stop-opacity="0.04"/>
      <stop offset="100%" stop-color="#50A891" stop-opacity="0"/>
    </radialGradient>
  </defs>
  <rect width="900" height="180" fill="#0F1419"/>
  <rect width="900" height="180" fill="url(#dg8)"/>
  <rect width="900" height="180" fill="url(#o8a)"/>
  <rect width="900" height="180" fill="url(#o8b)"/>
  <rect x="1" y="1" width="898" height="178" fill="none" stroke="#F0F4FA" stroke-opacity="0.1" stroke-width="2"/>
  <path d="M 0,20 L 0,0 L 20,0" fill="none" stroke="#D4A13D" stroke-opacity="0.4" stroke-width="2"/>
  <path d="M 880,0 L 900,0 L 900,20" fill="none" stroke="#D4A13D" stroke-opacity="0.4" stroke-width="2"/>
  <path d="M 0,160 L 0,180 L 20,180" fill="none" stroke="#D4A13D" stroke-opacity="0.4" stroke-width="2"/>
  <path d="M 880,180 L 900,180 L 900,160" fill="none" stroke="#D4A13D" stroke-opacity="0.4" stroke-width="2"/>
  <rect x="820" y="20" width="55" height="22" fill="#3b82f6" fill-opacity="0.2" rx="2"/>
  <text x="848" y="35" text-anchor="middle" fill="#3b82f6" font-family="monospace" font-size="9" letter-spacing="1">DEV</text>
  <text x="40" y="48" fill="#F0F4FA" font-family="monospace" font-size="22" font-weight="bold" letter-spacing="3">SMARTROADS</text>
  <line x1="40" y1="60" x2="256" y2="60" stroke="#D4A13D" stroke-opacity="0.3" stroke-width="1"/>
  <text x="40" y="85" fill="#F0F4FA" font-family="monospace" font-size="13" opacity="0.65">Revolutionary traffic management system.</text>
  <text x="40" y="107" fill="#F0F4FA" font-family="monospace" font-size="12" opacity="0.45">Coordinate just 5% of vehicles to eliminate congestion for everyone.</text>
  <text x="40" y="125" fill="#F0F4FA" font-family="monospace" font-size="12" opacity="0.45">RTK precision GPS positioning with AI-powered coordination.</text>
  <text x="40" y="158" fill="#D4A13D" font-family="monospace" font-size="11" opacity="0.6" letter-spacing="1">Traffic AI · RTK GPS · IoT · V2X</text>
  <text x="500" y="158" fill="#F0F4FA" font-family="monospace" font-size="10" opacity="0.3">constantlabs.ai/smartroads</text>
  <circle cx="830" cy="55" r="1" fill="#D4A13D" opacity="0.3"/>
  <circle cx="860" cy="105" r="0.8" fill="#50A891" opacity="0.25"/>
  <circle cx="810" cy="150" r="1.1" fill="#8B62CC" opacity="0.2"/>
</svg>
